<mxfile host="app.diagrams.net" modified="2021-09-25T06:25:50.181Z" agent="5.0 (Macintosh; Intel Mac OS X 10_13_6) AppleWebKit/537.36 (KHTML, like Gecko) Chrome/91.0.4472.114 Safari/537.36" etag="B_SwL_LDjoxZomakaJWd" version="14.7.6" type="github">
  <diagram name="Page-1" id="9f46799a-70d6-7492-0946-bef42562c5a5">
    <mxGraphModel dx="2046" dy="546" grid="1" gridSize="10" guides="1" tooltips="1" connect="1" arrows="1" fold="1" page="1" pageScale="1" pageWidth="1100" pageHeight="850" background="none" math="0" shadow="0">
      <root>
        <mxCell id="0" />
        <mxCell id="1" parent="0" />
        <mxCell id="mu3DDxImhB741A2iOI9a-24" value="&lt;pre style=&quot;background-color: #ffffff ; color: #080808 ; font-family: &amp;#34;jetbrains mono&amp;#34; , monospace ; font-size: 9.8pt&quot;&gt;&lt;span style=&quot;color: #000000&quot;&gt;IMyAidlInterfaceTest.aidl&lt;/span&gt;&lt;/pre&gt;" style="html=1;" vertex="1" parent="1">
          <mxGeometry x="80" y="180" width="250" height="70" as="geometry" />
        </mxCell>
        <mxCell id="mu3DDxImhB741A2iOI9a-26" value="&lt;pre style=&quot;background-color: #ffffff ; color: #080808 ; font-family: &amp;quot;jetbrains mono&amp;quot; , monospace ; font-size: 9.8pt&quot;&gt;&lt;span style=&quot;color: #0033b3&quot;&gt;void &lt;/span&gt;basicTypes(&lt;span style=&quot;color: #0033b3&quot;&gt;int &lt;/span&gt;anInt, &lt;span style=&quot;color: #0033b3&quot;&gt;long &lt;/span&gt;aLong, &lt;span style=&quot;color: #0033b3&quot;&gt;boolean &lt;/span&gt;aBoolean, &lt;span style=&quot;color: #0033b3&quot;&gt;float &lt;/span&gt;aFloat,&lt;br&gt;        &lt;span style=&quot;color: #0033b3&quot;&gt;double &lt;/span&gt;aDouble, &lt;span style=&quot;color: #000000&quot;&gt;String &lt;/span&gt;aString);&lt;br&gt;&lt;span style=&quot;color: #000000&quot;&gt;String &lt;/span&gt;getColor();&lt;br&gt;&lt;span style=&quot;color: #000000&quot;&gt;String &lt;/span&gt;setColor();&lt;/pre&gt;" style="shape=note;whiteSpace=wrap;html=1;backgroundOutline=1;darkOpacity=0.05;" vertex="1" parent="1">
          <mxGeometry x="50" width="550" height="150" as="geometry" />
        </mxCell>
        <mxCell id="mu3DDxImhB741A2iOI9a-27" value="" style="endArrow=classic;html=1;entryX=0.5;entryY=1;entryDx=0;entryDy=0;entryPerimeter=0;exitX=0.5;exitY=0;exitDx=0;exitDy=0;" edge="1" parent="1" source="mu3DDxImhB741A2iOI9a-24" target="mu3DDxImhB741A2iOI9a-26">
          <mxGeometry width="50" height="50" relative="1" as="geometry">
            <mxPoint x="280" y="330" as="sourcePoint" />
            <mxPoint x="330" y="280" as="targetPoint" />
            <Array as="points" />
          </mxGeometry>
        </mxCell>
        <mxCell id="mu3DDxImhB741A2iOI9a-28" value="AidlServiceTest:Service" style="swimlane;fontStyle=1;align=center;verticalAlign=top;childLayout=stackLayout;horizontal=1;startSize=26;horizontalStack=0;resizeParent=1;resizeParentMax=0;resizeLast=0;collapsible=1;marginBottom=0;" vertex="1" parent="1">
          <mxGeometry x="85" y="650" width="260" height="86" as="geometry" />
        </mxCell>
        <mxCell id="mu3DDxImhB741A2iOI9a-29" value="+ field: type" style="text;strokeColor=none;fillColor=none;align=left;verticalAlign=top;spacingLeft=4;spacingRight=4;overflow=hidden;rotatable=0;points=[[0,0.5],[1,0.5]];portConstraint=eastwest;" vertex="1" parent="mu3DDxImhB741A2iOI9a-28">
          <mxGeometry y="26" width="260" height="26" as="geometry" />
        </mxCell>
        <mxCell id="mu3DDxImhB741A2iOI9a-30" value="" style="line;strokeWidth=1;fillColor=none;align=left;verticalAlign=middle;spacingTop=-1;spacingLeft=3;spacingRight=3;rotatable=0;labelPosition=right;points=[];portConstraint=eastwest;" vertex="1" parent="mu3DDxImhB741A2iOI9a-28">
          <mxGeometry y="52" width="260" height="8" as="geometry" />
        </mxCell>
        <mxCell id="mu3DDxImhB741A2iOI9a-31" value="+ method(type): type" style="text;strokeColor=none;fillColor=none;align=left;verticalAlign=top;spacingLeft=4;spacingRight=4;overflow=hidden;rotatable=0;points=[[0,0.5],[1,0.5]];portConstraint=eastwest;" vertex="1" parent="mu3DDxImhB741A2iOI9a-28">
          <mxGeometry y="60" width="260" height="26" as="geometry" />
        </mxCell>
        <mxCell id="mu3DDxImhB741A2iOI9a-40" value="&lt;p style=&quot;margin: 0px ; margin-top: 4px ; text-align: center&quot;&gt;&lt;i&gt;&amp;lt;&amp;lt;Interface&amp;gt;&amp;gt;&lt;/i&gt;&lt;br&gt;&lt;/p&gt;&lt;p style=&quot;margin: 0px ; margin-top: 4px ; text-align: center&quot;&gt;&lt;span style=&quot;font-family: &amp;#34;jetbrains mono&amp;#34; , monospace ; font-size: 13.0667px ; text-align: left ; background-color: rgb(255 , 255 , 255)&quot;&gt;IMyAidlInterfaceTest&lt;/span&gt;&lt;br&gt;&lt;/p&gt;&lt;p style=&quot;margin: 0px ; margin-left: 4px&quot;&gt;&lt;br&gt;&lt;/p&gt;&lt;pre style=&quot;background-color: rgb(255 , 255 , 255) ; color: rgb(8 , 8 , 8) ; font-family: &amp;#34;jetbrains mono&amp;#34; , monospace ; font-size: 9.8pt&quot;&gt;+basicTypes(&lt;span style=&quot;font-size: 9.8pt ; color: rgb(0 , 51 , 179)&quot;&gt;int &lt;/span&gt;&lt;span style=&quot;font-size: 9.8pt&quot;&gt;anInt, &lt;/span&gt;&lt;span style=&quot;font-size: 9.8pt ; color: rgb(0 , 51 , 179)&quot;&gt;long &lt;/span&gt;&lt;span style=&quot;font-size: 9.8pt&quot;&gt;aLong, &lt;/span&gt;&lt;span style=&quot;font-size: 9.8pt ; color: rgb(0 , 51 , 179)&quot;&gt;boolean &lt;/span&gt;&lt;span style=&quot;font-size: 9.8pt&quot;&gt;aBoolean, &lt;/span&gt;&lt;span style=&quot;font-size: 9.8pt ; color: rgb(0 , 51 , 179)&quot;&gt;float &lt;/span&gt;&lt;span style=&quot;font-size: 9.8pt&quot;&gt;aFloat,&lt;/span&gt;&lt;/pre&gt;&lt;pre style=&quot;background-color: rgb(255 , 255 , 255) ; color: rgb(8 , 8 , 8) ; font-family: &amp;#34;jetbrains mono&amp;#34; , monospace ; font-size: 9.8pt&quot;&gt;        &lt;span style=&quot;color: rgb(0 , 51 , 179)&quot;&gt;double &lt;/span&gt;aDouble, &lt;span style=&quot;color: rgb(0 , 0 , 0)&quot;&gt;String &lt;/span&gt;aString);&lt;br&gt;&lt;span style=&quot;color: rgb(0 , 0 , 0)&quot;&gt;+String &lt;/span&gt;getColor();&lt;br&gt;&lt;span style=&quot;color: rgb(0 , 0 , 0)&quot;&gt;+String &lt;/span&gt;setColor();  &lt;/pre&gt;&lt;pre style=&quot;background-color: rgb(255 , 255 , 255) ; color: rgb(8 , 8 , 8) ; font-family: &amp;#34;jetbrains mono&amp;#34; , monospace ; font-size: 9.8pt&quot;&gt;&lt;br&gt;&lt;/pre&gt;" style="verticalAlign=top;align=left;overflow=fill;fontSize=12;fontFamily=Helvetica;html=1;" vertex="1" parent="1">
          <mxGeometry x="-20" y="410" width="550" height="150" as="geometry" />
        </mxCell>
        <mxCell id="mu3DDxImhB741A2iOI9a-42" value="&lt;p style=&quot;margin: 0px ; margin-top: 4px ; text-align: center&quot;&gt;&lt;i&gt;&amp;lt;&amp;lt;Interface&amp;gt;&amp;gt;&lt;/i&gt;&lt;br&gt;&lt;/p&gt;&lt;pre style=&quot;background-color: #ffffff ; color: #080808 ; font-family: &amp;#34;jetbrains mono&amp;#34; , monospace ; font-size: 9.8pt&quot;&gt;&lt;span style=&quot;color: #000000&quot;&gt;android.os.IInterface&lt;/span&gt;&lt;/pre&gt;&lt;hr size=&quot;1&quot;&gt;&lt;p style=&quot;margin: 0px ; margin-left: 4px&quot;&gt;+&lt;span style=&quot;font-family: &amp;#34;jetbrains mono&amp;#34; , monospace ; font-size: 9.8pt ; color: rgb(0 , 51 , 179)&quot;&gt;&amp;nbsp;&lt;/span&gt;&lt;span style=&quot;font-family: &amp;#34;jetbrains mono&amp;#34; , monospace ; font-size: 9.8pt&quot;&gt;IBinder &lt;/span&gt;&lt;span style=&quot;font-family: &amp;#34;jetbrains mono&amp;#34; , monospace ; font-size: 9.8pt ; color: rgb(0 , 98 , 122)&quot;&gt;asBinder&lt;/span&gt;&lt;span style=&quot;background-color: rgb(255 , 255 , 255) ; color: rgb(8 , 8 , 8) ; font-family: &amp;#34;jetbrains mono&amp;#34; , monospace ; font-size: 9.8pt&quot;&gt;()&lt;/span&gt;&lt;/p&gt;" style="verticalAlign=top;align=left;overflow=fill;fontSize=12;fontFamily=Helvetica;html=1;" vertex="1" parent="1">
          <mxGeometry x="345" y="160" width="190" height="110" as="geometry" />
        </mxCell>
        <mxCell id="mu3DDxImhB741A2iOI9a-46" value="&lt;pre style=&quot;background-color: rgb(255 , 255 , 255) ; font-family: &amp;#34;jetbrains mono&amp;#34; , monospace ; font-size: 9.8pt&quot;&gt;&lt;pre style=&quot;color: rgb(8 , 8 , 8) ; font-family: &amp;#34;jetbrains mono&amp;#34; , monospace ; font-size: 9.8pt&quot;&gt;&lt;br&gt;&lt;span style=&quot;color: #000000&quot;&gt; &lt;/span&gt;&lt;/pre&gt;&lt;pre style=&quot;color: rgb(8 , 8 , 8) ; font-family: &amp;#34;jetbrains mono&amp;#34; , monospace ; font-size: 9.8pt&quot;&gt;&lt;span style=&quot;color: #000000&quot;&gt;&lt;br&gt;&lt;/span&gt;&lt;/pre&gt;&lt;pre style=&quot;color: rgb(8 , 8 , 8) ; font-family: &amp;#34;jetbrains mono&amp;#34; , monospace ; font-size: 9.8pt&quot;&gt;IBinder&amp;nbsp;&lt;span style=&quot;font-size: 9.8pt ; text-align: left ; background-color: rgb(248 , 249 , 250) ; color: rgb(0 , 98 , 122)&quot;&gt;asBinder&lt;/span&gt;&lt;span style=&quot;font-size: 9.8pt ; text-align: left&quot;&gt;() 具体实现&lt;/span&gt;&lt;/pre&gt;&lt;pre style=&quot;color: rgb(8 , 8 , 8) ; font-family: &amp;#34;jetbrains mono&amp;#34; , monospace ; font-size: 9.8pt&quot;&gt;&lt;span style=&quot;color: #000000&quot;&gt;android.os.IInterface iin &lt;/span&gt;= &lt;/pre&gt;&lt;pre style=&quot;font-family: &amp;#34;jetbrains mono&amp;#34; , monospace ; font-size: 9.8pt&quot;&gt;&lt;font color=&quot;#080808&quot;&gt;obj.queryLocalInterface(&lt;/font&gt;&lt;span style=&quot;color: rgb(135 , 16 , 148) ; font-style: italic&quot;&gt;DESCRIPTOR&lt;/span&gt;&lt;font color=&quot;#080808&quot;&gt;);&lt;br&gt;&lt;/font&gt;&lt;span style=&quot;color: rgb(0 , 51 , 179)&quot;&gt;if &lt;/span&gt;&lt;font color=&quot;#080808&quot;&gt;(((&lt;/font&gt;&lt;span style=&quot;color: rgb(0 , 0 , 0)&quot;&gt;iin&lt;/span&gt;&lt;font color=&quot;#080808&quot;&gt;!=&lt;/font&gt;&lt;span style=&quot;color: rgb(0 , 51 , 179)&quot;&gt;null&lt;/span&gt;&lt;font color=&quot;#080808&quot;&gt;)&amp;amp;&amp;amp;(&lt;/font&gt;&lt;span style=&quot;color: rgb(0 , 0 , 0)&quot;&gt;iin &lt;/span&gt;&lt;span style=&quot;color: rgb(0 , 51 , 179)&quot;&gt;instanceof &lt;/span&gt;&lt;span style=&quot;color: rgb(0 , 0 , 0)&quot;&gt;IMyAidlInterfaceTest&lt;/span&gt;&lt;font color=&quot;#080808&quot;&gt;))) {&lt;br&gt;&lt;/font&gt;&lt;span style=&quot;color: rgb(0 , 51 , 179)&quot;&gt;return &lt;/span&gt;&lt;font color=&quot;#080808&quot;&gt;((&lt;/font&gt;&lt;span style=&quot;color: rgb(0 , 0 , 0)&quot;&gt;IMyAidlInterfaceTest&lt;/span&gt;&lt;font color=&quot;#080808&quot;&gt;)&lt;/font&gt;&lt;span style=&quot;color: rgb(0 , 0 , 0)&quot;&gt;iin&lt;/span&gt;&lt;font color=&quot;#080808&quot;&gt;);&lt;br&gt;}&lt;br&gt;&lt;/font&gt;&lt;span style=&quot;color: rgb(0 , 51 , 179)&quot;&gt;return new &lt;/span&gt;&lt;span style=&quot;color: rgb(0 , 0 , 0)&quot;&gt;IMyAidlInterfaceTest&lt;/span&gt;&lt;font color=&quot;#080808&quot;&gt;.&lt;/font&gt;&lt;font color=&quot;#ff6666&quot;&gt;Stub&lt;/font&gt;&lt;font color=&quot;#080808&quot;&gt;.Proxy(obj);&lt;/font&gt;&lt;/pre&gt;&lt;/pre&gt;" style="shape=note;whiteSpace=wrap;html=1;backgroundOutline=1;darkOpacity=0.05;" vertex="1" parent="1">
          <mxGeometry x="610" y="60" width="480" height="230" as="geometry" />
        </mxCell>
        <mxCell id="mu3DDxImhB741A2iOI9a-49" value="IMyAidlInterfaceTest.Stub" style="swimlane;fontStyle=1;align=center;verticalAlign=top;childLayout=stackLayout;horizontal=1;startSize=26;horizontalStack=0;resizeParent=1;resizeParentMax=0;resizeLast=0;collapsible=1;marginBottom=0;" vertex="1" parent="1">
          <mxGeometry x="700" y="328" width="320" height="172" as="geometry" />
        </mxCell>
        <mxCell id="mu3DDxImhB741A2iOI9a-54" value="Android.os.Binder" style="swimlane;fontStyle=1;align=center;verticalAlign=top;childLayout=stackLayout;horizontal=1;startSize=26;horizontalStack=0;resizeParent=1;resizeParentMax=0;resizeLast=0;collapsible=1;marginBottom=0;" vertex="1" parent="1">
          <mxGeometry x="345" y="300" width="160" height="34" as="geometry" />
        </mxCell>
        <mxCell id="mu3DDxImhB741A2iOI9a-56" value="" style="line;strokeWidth=1;fillColor=none;align=left;verticalAlign=middle;spacingTop=-1;spacingLeft=3;spacingRight=3;rotatable=0;labelPosition=right;points=[];portConstraint=eastwest;" vertex="1" parent="mu3DDxImhB741A2iOI9a-54">
          <mxGeometry y="26" width="160" height="8" as="geometry" />
        </mxCell>
        <mxCell id="mu3DDxImhB741A2iOI9a-58" value="Extends" style="endArrow=block;endSize=16;endFill=0;html=1;entryX=1;entryY=1.038;entryDx=0;entryDy=0;entryPerimeter=0;" edge="1" parent="1">
          <mxGeometry width="160" relative="1" as="geometry">
            <mxPoint x="700" y="380" as="sourcePoint" />
            <mxPoint x="505" y="352.98800000000006" as="targetPoint" />
          </mxGeometry>
        </mxCell>
        <mxCell id="mu3DDxImhB741A2iOI9a-59" value="" style="endArrow=block;dashed=1;endFill=0;endSize=12;html=1;exitX=0.5;exitY=0;exitDx=0;exitDy=0;entryX=0.589;entryY=1.036;entryDx=0;entryDy=0;entryPerimeter=0;" edge="1" parent="1" source="mu3DDxImhB741A2iOI9a-49" target="mu3DDxImhB741A2iOI9a-42">
          <mxGeometry width="160" relative="1" as="geometry">
            <mxPoint x="340" y="280" as="sourcePoint" />
            <mxPoint x="500" y="280" as="targetPoint" />
            <Array as="points" />
          </mxGeometry>
        </mxCell>
        <mxCell id="mu3DDxImhB741A2iOI9a-50" value="+ public Stub()&#xa;+IMyAidlInterfaceTest asInterface(android.os.IBinder obj) &#xa;+IBinder asBinder()&#xa;+boolean onTransact(int code, android.os.Parcel data,&#xa;              android.os.Parcel reply, int flags)" style="text;strokeColor=none;fillColor=none;align=left;verticalAlign=top;spacingLeft=4;spacingRight=4;overflow=hidden;rotatable=0;points=[[0,0.5],[1,0.5]];portConstraint=eastwest;" vertex="1" parent="1">
          <mxGeometry x="700" y="370" width="320" height="120" as="geometry" />
        </mxCell>
        <mxCell id="mu3DDxImhB741A2iOI9a-63" value="Prox" style="swimlane;fontStyle=1;align=center;verticalAlign=top;childLayout=stackLayout;horizontal=1;startSize=26;horizontalStack=0;resizeParent=1;resizeParentMax=0;resizeLast=0;collapsible=1;marginBottom=0;" vertex="1" parent="1">
          <mxGeometry x="700" y="530" width="400" height="158" as="geometry" />
        </mxCell>
        <mxCell id="mu3DDxImhB741A2iOI9a-66" value="Proxy(android.os.IBinder remote)&#xa;Binder asBinder()&#xa;&#xa;+basicTypes(int anInt, long aLong, boolean aBoolean, float aFloat,&#xa;        double aDouble, String aString);&#xa;+String getColor();&#xa;+String setColor();  " style="text;strokeColor=none;fillColor=none;align=left;verticalAlign=top;spacingLeft=4;spacingRight=4;overflow=hidden;rotatable=0;points=[[0,0.5],[1,0.5]];portConstraint=eastwest;" vertex="1" parent="mu3DDxImhB741A2iOI9a-63">
          <mxGeometry y="26" width="400" height="124" as="geometry" />
        </mxCell>
        <mxCell id="mu3DDxImhB741A2iOI9a-65" value="" style="line;strokeWidth=1;fillColor=none;align=left;verticalAlign=middle;spacingTop=-1;spacingLeft=3;spacingRight=3;rotatable=0;labelPosition=right;points=[];portConstraint=eastwest;" vertex="1" parent="mu3DDxImhB741A2iOI9a-63">
          <mxGeometry y="150" width="400" height="8" as="geometry" />
        </mxCell>
        <mxCell id="mu3DDxImhB741A2iOI9a-67" value="" style="endArrow=block;dashed=1;endFill=0;endSize=12;html=1;entryX=1.004;entryY=0.447;entryDx=0;entryDy=0;entryPerimeter=0;exitX=-0.012;exitY=0.383;exitDx=0;exitDy=0;exitPerimeter=0;" edge="1" parent="1" source="mu3DDxImhB741A2iOI9a-50" target="mu3DDxImhB741A2iOI9a-40">
          <mxGeometry width="160" relative="1" as="geometry">
            <mxPoint x="690" y="420" as="sourcePoint" />
            <mxPoint x="850" y="420" as="targetPoint" />
          </mxGeometry>
        </mxCell>
        <mxCell id="mu3DDxImhB741A2iOI9a-68" value="" style="endArrow=block;dashed=1;endFill=0;endSize=12;html=1;" edge="1" parent="1">
          <mxGeometry width="160" relative="1" as="geometry">
            <mxPoint x="690" y="610" as="sourcePoint" />
            <mxPoint x="550" y="490" as="targetPoint" />
          </mxGeometry>
        </mxCell>
      </root>
    </mxGraphModel>
  </diagram>
</mxfile>
